<svg xmlns="http://www.w3.org/2000/svg" viewBox="0 0 64 64">
  <defs>
    <linearGradient id="farm-grad" x1="0%" y1="0%" x2="0%" y2="100%">
      <stop offset="0%" style="stop-color:#66aa66"/>
      <stop offset="100%" style="stop-color:#448844"/>
    </linearGradient>
  </defs>
  <!-- Greenhouse structure -->
  <rect x="8" y="20" width="48" height="36" rx="4" fill="#77997755" stroke="#66aa66" stroke-width="2"/>
  <!-- Plants -->
  <path d="M16 52 L16 38 Q16 32 20 36 Q24 30 20 38 L20 52" fill="#44ff44"/>
  <path d="M28 52 L28 34 Q28 28 32 32 Q36 26 32 34 L32 52" fill="#22cc22"/>
  <path d="M40 52 L40 36 Q40 30 44 34 Q48 28 44 36 L44 52" fill="#66ff66"/>
  <!-- Grow lights -->
  <rect x="12" y="22" width="8" height="4" rx="1" fill="#ff88ff" opacity="0.7"/>
  <rect x="28" y="22" width="8" height="4" rx="1" fill="#ff88ff" opacity="0.7"/>
  <rect x="44" y="22" width="8" height="4" rx="1" fill="#ff88ff" opacity="0.7"/>
</svg>
